<?xml version="1.0" encoding="utf-8"?>
<!-- Generator: Adobe Illustrator 27.2.0, SVG Export Plug-In . SVG Version: 6.00 Build 0)  -->
<svg version="1.1" id="Livello_1" xmlns="http://www.w3.org/2000/svg" xmlns:xlink="http://www.w3.org/1999/xlink" x="0px" y="0px"
	 viewBox="0 0 128 128" style="enable-background:new 0 0 128 128;" xml:space="preserve">
<style type="text/css">
	.st0{fill-rule:evenodd;clip-rule:evenodd;fill:#FF2996;}
	.st1{fill:#FF2996;}
</style>
<path class="st0" d="M126.2,0.7c-36.2,0-72.3,0-108.5,0c-5.2,0-10.5,0-15.6,0C1.7,0.7,1,0.9,1,1v126h126V1
	C127,0.9,126.6,0.7,126.2,0.7z M113.5,114.7c-32.6,0-65.3,0-97.9,0c-1.6,0-1.6,0-1.6-1.6V15.2c0-1.6,0-1.2,1.6-1.2h97.8
	c1.6,0,1.6-0.4,1.6,1.3v48.8c0,16.3,0,32.6,0,49C115,114.3,114.7,114.7,113.5,114.7z"/>
<image style="overflow:visible;" width="360" height="360" xlink:href="png-transparent-abode-lightroom-logo-adobe-lightroom-adobe-creative-cloud-adobe-systems-graphy-lightroom-ico-miscellaneous-rectangle-number-thumbnail.png"  transform="matrix(1 0 0 1 215 54.4963)">
</image>
<g>
	<path class="st1" d="M51.1,38.6v53.9H40.6V38.6H51.1z"/>
	<path class="st1" d="M87.5,37.2V81c0,3.7,0.2,8,0.3,11.6h-9l-0.6-4.4H78c-1.4,2.8-4.6,5.1-8.1,5.1c-8.3,0-12.2-9.2-12.2-20.1
		c0-13.6,6-20.3,12.6-20.3c3.5,0,5.6,1.7,6.6,4h0.2V37.2H87.5z M77.1,68.4c0-0.7,0-1.5-0.1-2.3c-0.4-2.4-1.6-4.6-3.7-4.6
		c-3.7,0-5,5.3-5,11.7c0,7.4,2,11.3,4.9,11.3c1.4,0,2.8-0.7,3.6-3.4c0.2-0.6,0.3-1.4,0.3-2.5V68.4z"/>
</g>
</svg>
