<?xml version="1.0" encoding="utf-8"?>
<svg version="1.1" id="Livello_1" xmlns="http://www.w3.org/2000/svg" xmlns:xlink="http://www.w3.org/1999/xlink" x="0px" y="0px"
	 viewBox="0 0 128 128" style="enable-background:new 0 0 128 128;" xml:space="preserve">
<style type="text/css">
	.st0{fill-rule:evenodd;clip-rule:evenodd;fill:#9DD3EB;}
	.st1{fill:#9DD3EB;}
</style>
<path class="st0" d="M126.2,0.7c-36.2,0-72.3,0-108.5,0c-5.2,0-10.5,0-15.6,0C1.7,0.7,1,0.9,1,1v126h126V1
	C127,0.9,126.6,0.7,126.2,0.7z M113.5,114.7c-32.6,0-65.3,0-97.9,0c-1.6,0-1.6,0-1.6-1.6V15.2c0-1.6,0-1.2,1.6-1.2h97.8
	c1.6,0,1.6-0.4,1.6,1.3v48.8c0,16.3,0,32.6,0,49C115,114.3,114.7,114.7,113.5,114.7z"/>
<image style="overflow:visible;" width="360" height="360" xlink:href="png-transparent-abode-lightroom-logo-adobe-lightroom-adobe-creative-cloud-adobe-systems-graphy-lightroom-ico-miscellaneous-rectangle-number-thumbnail.png"  transform="matrix(1 0 0 1 187.867 -12.5962)">
</image>
<g>
	<g>
		<path class="st1" d="M40.5,38.8H51v45h13.8v8.9H40.5V38.8z"/>
		<path class="st1" d="M69.8,65.4c0-3.9-0.2-8.1-0.3-11.8h9.1l0.5,5.7h0.3c1.7-4.2,4.9-6.4,7.8-6.4c1.1,0,1.6,0.1,2.2,0.2v10.4
			c-0.7-0.1-1.3-0.1-2.3-0.1c-2.2,0-5.2,1.5-6.3,5.6c-0.3,0.9-0.5,2.3-0.5,3.9v19.9H69.8V65.4z"/>
	</g>
</g>
</svg>
